<svg xmlns="http://www.w3.org/2000/svg" xmlns:osb="http://www.openswatchbook.org/uri/2009/osb" xmlns:svg="http://www.w3.org/2000/svg" xmlns:xlink="http://www.w3.org/1999/xlink" id="svg2" width="535.526" height="319.737" version="1.1"><defs id="defs4"><linearGradient id="linearGradient5388" osb:paint="gradient"><stop id="stop5390" offset="0" stop-color="#00a3d8" stop-opacity="1"/><stop id="stop5392" offset="1" stop-color="#00a3d8" stop-opacity="0"/></linearGradient><linearGradient id="linearGradient5382" osb:paint="solid"><stop id="stop5384" offset="0" stop-color="#0000fb" stop-opacity="0"/></linearGradient><linearGradient id="linearGradient5403" x1="465.789" x2="490.789" y1="465.191" y2="465.191" gradientTransform="matrix(0.97388098,0,0,1.0638134,-6.1694074,-977.00683)" gradientUnits="userSpaceOnUse" xlink:href="#linearGradient5388"/><linearGradient id="linearGradient6466" x1="465.789" x2="490.789" y1="465.191" y2="465.191" gradientTransform="matrix(0.97388098,0,0,1.0638134,-6.1694074,-977.00683)" gradientUnits="userSpaceOnUse" xlink:href="#linearGradient5388"/><linearGradient id="linearGradient3799" x1="465.789" x2="490.789" y1="465.191" y2="465.191" gradientTransform="matrix(0.97388098,0,0,1.0638134,-6.1694074,-977.00683)" gradientUnits="userSpaceOnUse" xlink:href="#linearGradient5388"/><linearGradient id="linearGradient3801" x1="465.789" x2="490.789" y1="465.191" y2="465.191" gradientTransform="matrix(0.97388098,0,0,1.0638134,-6.1694074,-977.00683)" gradientUnits="userSpaceOnUse" xlink:href="#linearGradient5388"/><linearGradient id="linearGradient3686" x1="386.38" x2="433.49" y1="81.633" y2="130.03" gradientTransform="translate(28.11,-1.7569)" gradientUnits="userSpaceOnUse" xlink:href="#linearGradient3678"/><linearGradient id="linearGradient3684" x1="244.6" x2="288.82" y1="81.633" y2="178.43" gradientTransform="translate(-28.11,1.7569)" gradientUnits="userSpaceOnUse" xlink:href="#linearGradient3678"/><filter id="filter5371" width="3.151" height="3.151" x="-1.075" y="-1.075" color-interpolation-filters="sRGB"><feGaussianBlur id="feGaussianBlur5373" stdDeviation="19.682"/></filter><filter id="filter5329" color-interpolation-filters="sRGB"><feGaussianBlur id="feGaussianBlur5331" stdDeviation="1.649"/></filter><linearGradient id="linearGradient3678"><stop id="stop3680" offset="0" stop-color="#a9a9a9"/><stop id="stop3682" offset="1" stop-color="#a9a9a9" stop-opacity="0"/></linearGradient><filter id="filter5371-4" width="3.151" height="3.151" x="-1.075" y="-1.075" color-interpolation-filters="sRGB"><feGaussianBlur id="feGaussianBlur5373-8" stdDeviation="19.682"/></filter><filter id="filter5371-9" width="3.151" height="3.151" x="-1.075" y="-1.075" color-interpolation-filters="sRGB"><feGaussianBlur id="feGaussianBlur5373-6" stdDeviation="19.682"/></filter><filter id="filter5329-0" color-interpolation-filters="sRGB"><feGaussianBlur id="feGaussianBlur5331-1" stdDeviation="1.649"/></filter><linearGradient id="linearGradient6010" x1="244.6" x2="288.82" y1="81.633" y2="178.43" gradientTransform="translate(-28.11,1.7569)" gradientUnits="userSpaceOnUse" xlink:href="#linearGradient3678"/><linearGradient id="linearGradient6012" x1="386.38" x2="433.49" y1="81.633" y2="130.03" gradientTransform="translate(28.11,-1.7569)" gradientUnits="userSpaceOnUse" xlink:href="#linearGradient3678"/><linearGradient id="linearGradient6014" x1="244.6" x2="288.82" y1="81.633" y2="178.43" gradientTransform="translate(-28.11,1.7569)" gradientUnits="userSpaceOnUse" xlink:href="#linearGradient3678"/><linearGradient id="linearGradient6016" x1="386.38" x2="433.49" y1="81.633" y2="130.03" gradientTransform="translate(28.11,-1.7569)" gradientUnits="userSpaceOnUse" xlink:href="#linearGradient3678"/><linearGradient id="linearGradient6018" x1="244.6" x2="288.82" y1="81.633" y2="178.43" gradientTransform="translate(-28.11,1.7569)" gradientUnits="userSpaceOnUse" xlink:href="#linearGradient3678"/><linearGradient id="linearGradient6020" x1="386.38" x2="433.49" y1="81.633" y2="130.03" gradientTransform="translate(28.11,-1.7569)" gradientUnits="userSpaceOnUse" xlink:href="#linearGradient3678"/><linearGradient id="linearGradient6022" x1="244.6" x2="288.82" y1="81.633" y2="178.43" gradientTransform="translate(-28.11,1.7569)" gradientUnits="userSpaceOnUse" xlink:href="#linearGradient3678"/><linearGradient id="linearGradient6024" x1="386.38" x2="433.49" y1="81.633" y2="130.03" gradientTransform="translate(28.11,-1.7569)" gradientUnits="userSpaceOnUse" xlink:href="#linearGradient3678"/><filter id="filter5371-3" width="3.151" height="3.151" x="-1.075" y="-1.075" color-interpolation-filters="sRGB"><feGaussianBlur id="feGaussianBlur5373-5" stdDeviation="19.682"/></filter><linearGradient id="linearGradient6557" x1="244.6" x2="288.82" y1="81.633" y2="178.43" gradientTransform="translate(-28.11,1.7569)" gradientUnits="userSpaceOnUse" xlink:href="#linearGradient3678"/><linearGradient id="linearGradient6559" x1="386.38" x2="433.49" y1="81.633" y2="130.03" gradientTransform="translate(28.11,-1.7569)" gradientUnits="userSpaceOnUse" xlink:href="#linearGradient3678"/><linearGradient id="linearGradient6561" x1="244.6" x2="288.82" y1="81.633" y2="178.43" gradientTransform="translate(-28.11,1.7569)" gradientUnits="userSpaceOnUse" xlink:href="#linearGradient3678"/><linearGradient id="linearGradient6563" x1="386.38" x2="433.49" y1="81.633" y2="130.03" gradientTransform="translate(28.11,-1.7569)" gradientUnits="userSpaceOnUse" xlink:href="#linearGradient3678"/></defs><metadata id="metadata7"/><g id="layer1" transform="translate(-14.473684,-670.78326)"><g id="g3910"><rect id="rect3350" width="535.526" height="319.737" x="14.474" y="670.783" fill="#000" fill-opacity="1" stroke="none"/><g id="g3352" transform="matrix(0.36856045,0,0,0.36857838,-88.928261,602.61314)"><rect id="rect3354" width="160" height="160" x="362.526" y="345.02" fill="#fff" fill-opacity="1" stroke="#000" stroke-dasharray="none" stroke-miterlimit="4" stroke-opacity="1" stroke-width="4"/><rect id="rect3356" width="24.347" height="21.696" x="447.454" y="-492.978" fill="url(#linearGradient3799)" fill-opacity="1" stroke="none" transform="matrix(-0.00975266,0.99995244,-0.9999666,-0.00817331,0,0)"/><path id="path3358" fill="none" stroke="#000" stroke-miterlimit="4" stroke-opacity="1" stroke-width="5.347" d="m 393.00281,403.51244 41.45112,-0.39622 0.88112,-14.12176 -17.03772,-1.04253 0.3336,-10.06427 43.6265,0.74442 -0.37641,10.73252 -14.97353,-0.0513 -0.39461,14.50865 c 41.37718,-0.98045 45.3577,0.18812 43.51217,47.03851 l -24.58416,0.68261 c 0.38224,-23.64611 8.10402,-20.71225 -73.3201,-19.97252"/></g><g id="g3380" transform="matrix(0.36585686,0,0,0.36559428,197.08396,682.25518)"><rect id="rect3382" width="160" height="160" x="127" y="294.362" fill="#fff" fill-opacity="1" stroke="#000" stroke-dasharray="none" stroke-miterlimit="4" stroke-opacity="1" stroke-width="4"/><path id="path3384" fill="#000" fill-opacity="1" stroke="none" d="m 223,321.36218 c 0,37.00308 -29.99692,67 -67,67 -37.00308,0 -67,-29.99692 -67,-67 0,-37.00308 29.99692,-67 67,-67 37.00308,0 67,29.99692 67,67 z" transform="translate(52,51)"/><path id="path3386" fill="#00a3d8" fill-opacity="1" stroke="none" d="m 177.48808,366.94412 14.95048,-40.97593 49.10335,-1.03572 -19.89942,28.88756 15.80545,6.80053 -52.2341,62.1111 11.91027,-48.62431 z"/></g><g id="g3396" transform="matrix(0.36585686,0,0,0.36559428,402.29449,620.41307)"><rect id="rect3398" width="160" height="160" x="127" y="294.362" fill="#fff" fill-opacity="1" stroke="#000" stroke-dasharray="none" stroke-miterlimit="4" stroke-opacity="1" stroke-width="4"/><path id="path3400" fill="#000" fill-opacity="1" stroke="none" d="m 223,321.36218 c 0,37.00308 -29.99692,67 -67,67 -37.00308,0 -67,-29.99692 -67,-67 0,-37.00308 29.99692,-67 67,-67 37.00308,0 67,29.99692 67,67 z" transform="translate(52,51)"/><path id="path3402" fill="#00a3d8" fill-opacity="1" stroke="none" d="m 177.48808,366.94412 14.95048,-40.97593 49.10335,-1.03572 -19.89942,28.88756 15.80545,6.80053 -52.2341,62.1111 11.91027,-48.62431 z"/></g><g id="g3404" transform="matrix(0.36585686,0,0,0.36559428,412.16292,790.8078)"><rect id="rect3406" width="160" height="160" x="127" y="294.362" fill="#fff" fill-opacity="1" stroke="#000" stroke-dasharray="none" stroke-miterlimit="4" stroke-opacity="1" stroke-width="4"/><path id="path3408" fill="#000" fill-opacity="1" stroke="none" d="m 223,321.36218 c 0,37.00308 -29.99692,67 -67,67 -37.00308,0 -67,-29.99692 -67,-67 0,-37.00308 29.99692,-67 67,-67 37.00308,0 67,29.99692 67,67 z" transform="translate(52,51)"/><path id="path3410" fill="#00a3d8" fill-opacity="1" stroke="none" d="m 177.48808,366.94412 14.95048,-40.97593 49.10335,-1.03572 -19.89942,28.88756 15.80545,6.80053 -52.2341,62.1111 11.91027,-48.62431 z"/></g><g id="g3444" transform="matrix(0.49617624,0,0,0.49617624,298.85114,709.03251)"><rect id="rect3446" width="305.808" height="41.786" x="13.139" y="418.81" fill="#000" fill-opacity="1" stroke="none"/><rect id="rect3448" width="284.248" height="3.214" x="22.425" y="450.595" fill="#fff" fill-opacity="1" stroke="none"/><path id="path3450" fill="#fff" fill-opacity="1" stroke="none" d="m 737.88707,237.42594 -9.87833,4.97467 0.63098,-11.04222 z" transform="matrix(1.4794213,0,0,1,-776.39922,215.06087)"/><rect id="rect3452" width="90.914" height="19.698" x="19.944" y="423.312" fill="#de0707" fill-opacity="1" stroke="none"/><text id="text3454" x="38.242" y="438.928" fill="#fff" fill-opacity="1" stroke="none" font-family="Sans" font-size="20.199" font-style="normal" font-weight="normal" letter-spacing="0" word-spacing="0" xml:space="preserve" style="line-height:125%"><tspan id="tspan3456" x="38.242" y="438.928">Tuple</tspan></text><rect id="rect3458" width="90.914" height="19.698" x="122.944" y="422.312" fill="#de0707" fill-opacity="1" stroke="none"/><text id="text3460" x="141.242" y="437.928" fill="#fff" fill-opacity="1" stroke="none" font-family="Sans" font-size="20.199" font-style="normal" font-weight="normal" letter-spacing="0" word-spacing="0" xml:space="preserve" style="line-height:125%"><tspan id="tspan3462" x="141.242" y="437.928">Tuple</tspan></text><rect id="rect3464" width="90.914" height="19.698" x="222.944" y="422.312" fill="#de0707" fill-opacity="1" stroke="none"/><text id="text3466" x="241.242" y="437.928" fill="#fff" fill-opacity="1" stroke="none" font-family="Sans" font-size="20.199" font-style="normal" font-weight="normal" letter-spacing="0" word-spacing="0" xml:space="preserve" style="line-height:125%"><tspan id="tspan3468" x="241.242" y="437.928">Tuple</tspan></text></g><g id="g3470" transform="matrix(0.43594488,-0.19758848,0.19758848,0.43594488,224.74712,663.19646)"><rect id="rect3472" width="305.808" height="41.786" x="15.113" y="362.888" fill="#000" fill-opacity="1" stroke="none"/><rect id="rect3474" width="284.248" height="3.214" x="24.398" y="394.674" fill="#fff" fill-opacity="1" stroke="none"/><path id="path3476" fill="#fff" fill-opacity="1" stroke="none" d="m 737.88707,237.42594 -9.87833,4.97467 0.63098,-11.04222 z" transform="matrix(1.4794213,0,0,1,-774.42554,159.13982)"/><rect id="rect3478" width="90.914" height="19.698" x="21.918" y="367.391" fill="#00a300" fill-opacity="1" stroke="none"/><text id="text3480" x="40.216" y="383.007" fill="#fff" fill-opacity="1" stroke="none" font-family="Sans" font-size="20.199" font-style="normal" font-weight="normal" letter-spacing="0" word-spacing="0" xml:space="preserve" style="line-height:125%"><tspan id="tspan3482" x="40.216" y="383.007">Tuple</tspan></text><rect id="rect3484" width="90.914" height="19.698" x="124.918" y="366.391" fill="#00a300" fill-opacity="1" stroke="none"/><text id="text3486" x="143.216" y="382.007" fill="#fff" fill-opacity="1" stroke="none" font-family="Sans" font-size="20.199" font-style="normal" font-weight="normal" letter-spacing="0" word-spacing="0" xml:space="preserve" style="line-height:125%"><tspan id="tspan3488" x="143.216" y="382.007">Tuple</tspan></text><rect id="rect3490" width="90.914" height="19.698" x="224.918" y="366.391" fill="#00a300" fill-opacity="1" stroke="none"/><text id="text3492" x="243.216" y="382.007" fill="#fff" fill-opacity="1" stroke="none" font-family="Sans" font-size="20.199" font-style="normal" font-weight="normal" letter-spacing="0" word-spacing="0" xml:space="preserve" style="line-height:125%"><tspan id="tspan3494" x="243.216" y="382.007">Tuple</tspan></text></g><g id="g3496" transform="matrix(0.43661378,-0.19610597,0.19610597,0.43661378,25.256319,713.34855)"><rect id="rect3498" width="305.808" height="41.786" x="15.113" y="362.888" fill="#000" fill-opacity="1" stroke="none"/><rect id="rect3500" width="284.248" height="3.214" x="24.398" y="394.674" fill="#fff" fill-opacity="1" stroke="none"/><path id="path3502" fill="#fff" fill-opacity="1" stroke="none" d="m 737.88707,237.42594 -9.87833,4.97467 0.63098,-11.04222 z" transform="matrix(1.4794213,0,0,1,-774.42554,159.13982)"/><rect id="rect3504" width="90.914" height="19.698" x="21.918" y="367.391" fill="#00a300" fill-opacity="1" stroke="none"/><text id="text3506" x="40.216" y="383.007" fill="#fff" fill-opacity="1" stroke="none" font-family="Sans" font-size="20.199" font-style="normal" font-weight="normal" letter-spacing="0" word-spacing="0" xml:space="preserve" style="line-height:125%"><tspan id="tspan3508" x="40.216" y="383.007">Tuple</tspan></text><rect id="rect3510" width="90.914" height="19.698" x="124.918" y="366.391" fill="#00a300" fill-opacity="1" stroke="none"/><text id="text3512" x="143.216" y="382.007" fill="#fff" fill-opacity="1" stroke="none" font-family="Sans" font-size="20.199" font-style="normal" font-weight="normal" letter-spacing="0" word-spacing="0" xml:space="preserve" style="line-height:125%"><tspan id="tspan3514" x="143.216" y="382.007">Tuple</tspan></text><rect id="rect3516" width="90.914" height="19.698" x="224.918" y="366.391" fill="#00a300" fill-opacity="1" stroke="none"/><text id="text3518" x="243.216" y="382.007" fill="#fff" fill-opacity="1" stroke="none" font-family="Sans" font-size="20.199" font-style="normal" font-weight="normal" letter-spacing="0" word-spacing="0" xml:space="preserve" style="line-height:125%"><tspan id="tspan3520" x="243.216" y="382.007">Tuple</tspan></text></g><g id="g3522" transform="matrix(0.48017674,0.12498463,-0.12498463,0.48017674,149.88483,684.78836)"><rect id="rect3524" width="305.808" height="41.786" x="13.139" y="418.81" fill="#000" fill-opacity="1" stroke="none"/><rect id="rect3526" width="284.248" height="3.214" x="22.425" y="450.595" fill="#fff" fill-opacity="1" stroke="none"/><path id="path3528" fill="#fff" fill-opacity="1" stroke="none" d="m 737.88707,237.42594 -9.87833,4.97467 0.63098,-11.04222 z" transform="matrix(1.4794213,0,0,1,-776.39922,215.06087)"/><rect id="rect3530" width="90.914" height="19.698" x="19.944" y="423.312" fill="#de0707" fill-opacity="1" stroke="none"/><text id="text3532" x="38.242" y="438.928" fill="#fff" fill-opacity="1" stroke="none" font-family="Sans" font-size="20.199" font-style="normal" font-weight="normal" letter-spacing="0" word-spacing="0" xml:space="preserve" style="line-height:125%"><tspan id="tspan3534" x="38.242" y="438.928">Tuple</tspan></text><rect id="rect3536" width="90.914" height="19.698" x="122.944" y="422.312" fill="#de0707" fill-opacity="1" stroke="none"/><text id="text3538" x="141.242" y="437.928" fill="#fff" fill-opacity="1" stroke="none" font-family="Sans" font-size="20.199" font-style="normal" font-weight="normal" letter-spacing="0" word-spacing="0" xml:space="preserve" style="line-height:125%"><tspan id="tspan3540" x="141.242" y="437.928">Tuple</tspan></text><rect id="rect3542" width="90.914" height="19.698" x="222.944" y="422.312" fill="#de0707" fill-opacity="1" stroke="none"/><text id="text3544" x="241.242" y="437.928" fill="#fff" fill-opacity="1" stroke="none" font-family="Sans" font-size="20.199" font-style="normal" font-weight="normal" letter-spacing="0" word-spacing="0" xml:space="preserve" style="line-height:125%"><tspan id="tspan3546" x="241.242" y="437.928">Tuple</tspan></text></g><g id="g3362" transform="matrix(0.36856045,0,0,0.36857838,-88.928261,733.29735)"><rect id="rect3364" width="160" height="160" x="362.526" y="345.02" fill="#fff" fill-opacity="1" stroke="#000" stroke-dasharray="none" stroke-miterlimit="4" stroke-opacity="1" stroke-width="4"/><rect id="rect3366" width="24.347" height="21.696" x="447.454" y="-492.978" fill="url(#linearGradient3801)" fill-opacity="1" stroke="none" transform="matrix(-0.00975266,0.99995244,-0.9999666,-0.00817331,0,0)"/><path id="path3368" fill="none" stroke="#000" stroke-miterlimit="4" stroke-opacity="1" stroke-width="5.347" d="m 393.00281,403.51244 41.45112,-0.39622 0.88112,-14.12176 -17.03772,-1.04253 0.3336,-10.06427 43.6265,0.74442 -0.37641,10.73252 -14.97353,-0.0513 -0.39461,14.50865 c 41.37718,-0.98045 45.3577,0.18812 43.51217,47.03851 l -24.58416,0.68261 c 0.38224,-23.64611 8.10402,-20.71225 -73.3201,-19.97252"/></g><g id="g3388" transform="matrix(0.36585686,0,0,0.36559428,202.3208,790.14991)"><rect id="rect3390" width="160" height="160" x="127" y="294.362" fill="#fff" fill-opacity="1" stroke="#000" stroke-dasharray="none" stroke-miterlimit="4" stroke-opacity="1" stroke-width="4"/><path id="path3392" fill="#000" fill-opacity="1" stroke="none" d="m 223,321.36218 c 0,37.00308 -29.99692,67 -67,67 -37.00308,0 -67,-29.99692 -67,-67 0,-37.00308 29.99692,-67 67,-67 37.00308,0 67,29.99692 67,67 z" transform="translate(52,51)"/><path id="path3394" fill="#00a3d8" fill-opacity="1" stroke="none" d="m 177.48808,366.94412 14.95048,-40.97593 49.10335,-1.03572 -19.89942,28.88756 15.80545,6.80053 -52.2341,62.1111 11.91027,-48.62431 z"/></g><g id="g3592" transform="matrix(0.53224467,-0.19709421,0.19709421,0.53224467,-226.54789,504.58613)"><rect id="rect3594" width="253.96" height="35.238" x="394.592" y="605.648" fill="#000" fill-opacity="1" stroke="none"/><rect id="rect3596" width="240.384" height="2.711" x="397.818" y="632.453" fill="#fff" fill-opacity="1" stroke="none"/><path id="path3598" fill="#fff" fill-opacity="1" stroke="none" d="m 737.88707,237.42594 -9.87833,4.97467 0.63098,-11.04222 z" transform="matrix(1.2476081,0,0,0.84330818,-276.27173,433.82517)"/><rect id="rect3600" width="76.668" height="16.611" x="398.376" y="608.602" fill="#00a3d8" fill-opacity="1" stroke="none"/><text id="text3602" x="413.807" y="621.771" fill="#fff" fill-opacity="1" stroke="none" font-family="Sans" font-size="17.034" font-style="normal" font-weight="normal" letter-spacing="0" word-spacing="0" xml:space="preserve" style="line-height:125%"><tspan id="tspan3604" x="413.807" y="621.771">Tuple</tspan></text><rect id="rect3606" width="76.668" height="16.611" x="482.707" y="608.602" fill="#00a3d8" fill-opacity="1" stroke="none"/><text id="text3608" x="498.138" y="621.771" fill="#fff" fill-opacity="1" stroke="none" font-family="Sans" font-size="17.034" font-style="normal" font-weight="normal" letter-spacing="0" word-spacing="0" xml:space="preserve" style="line-height:125%"><tspan id="tspan3610" x="498.138" y="621.771">Tuple</tspan></text><rect id="rect3612" width="76.668" height="16.611" x="567.881" y="608.602" fill="#00a3d8" fill-opacity="1" stroke="none"/><text id="text3614" x="583.312" y="621.771" fill="#fff" fill-opacity="1" stroke="none" font-family="Sans" font-size="17.034" font-style="normal" font-weight="normal" letter-spacing="0" word-spacing="0" xml:space="preserve" style="line-height:125%"><tspan id="tspan3616" x="583.312" y="621.771">Tuple</tspan></text></g><g id="g3664" transform="matrix(0.55323305,0.1267427,-0.1267427,0.55323305,164.99997,312.07406)"><rect id="rect3666" width="253.96" height="35.238" x="394.592" y="605.648" fill="#000" fill-opacity="1" stroke="none"/><rect id="rect3668" width="240.384" height="2.711" x="397.818" y="632.453" fill="#fff" fill-opacity="1" stroke="none"/><path id="path3670" fill="#fff" fill-opacity="1" stroke="none" d="m 737.88707,237.42594 -9.87833,4.97467 0.63098,-11.04222 z" transform="matrix(1.2476081,0,0,0.84330818,-276.27173,433.82517)"/><rect id="rect3672" width="76.668" height="16.611" x="398.376" y="608.602" fill="#00a3d8" fill-opacity="1" stroke="none"/><text id="text3674" x="413.807" y="621.771" fill="#fff" fill-opacity="1" stroke="none" font-family="Sans" font-size="17.034" font-style="normal" font-weight="normal" letter-spacing="0" word-spacing="0" xml:space="preserve" style="line-height:125%"><tspan id="tspan3676" x="413.807" y="621.771">Tuple</tspan></text><rect id="rect3678" width="76.668" height="16.611" x="482.707" y="608.602" fill="#00a3d8" fill-opacity="1" stroke="none"/><text id="text3680" x="498.138" y="621.771" fill="#fff" fill-opacity="1" stroke="none" font-family="Sans" font-size="17.034" font-style="normal" font-weight="normal" letter-spacing="0" word-spacing="0" xml:space="preserve" style="line-height:125%"><tspan id="tspan3682" x="498.138" y="621.771">Tuple</tspan></text><rect id="rect3684" width="76.668" height="16.611" x="567.881" y="608.602" fill="#00a3d8" fill-opacity="1" stroke="none"/><text id="text3686" x="583.312" y="621.771" fill="#fff" fill-opacity="1" stroke="none" font-family="Sans" font-size="17.034" font-style="normal" font-weight="normal" letter-spacing="0" word-spacing="0" xml:space="preserve" style="line-height:125%"><tspan id="tspan3688" x="583.312" y="621.771">Tuple</tspan></text></g><g id="g3372" transform="matrix(0.36585686,0,0,0.36559428,198.34712,573.04464)"><rect id="rect3374" width="160" height="160" x="127" y="294.362" fill="#fff" fill-opacity="1" stroke="#000" stroke-dasharray="none" stroke-miterlimit="4" stroke-opacity="1" stroke-width="4"/><path id="path3376" fill="#000" fill-opacity="1" stroke="none" d="m 223,321.36218 c 0,37.00308 -29.99692,67 -67,67 -37.00308,0 -67,-29.99692 -67,-67 0,-37.00308 29.99692,-67 67,-67 37.00308,0 67,29.99692 67,67 z" transform="translate(52,51)"/><path id="path3378" fill="#00a3d8" fill-opacity="1" stroke="none" d="m 177.48808,366.94412 14.95048,-40.97593 49.10335,-1.03572 -19.89942,28.88756 15.80545,6.80053 -52.2341,62.1111 11.91027,-48.62431 z"/></g></g></g></svg>